<svg width="123" height="41" viewBox="0 0 123 41" fill="none" xmlns="http://www.w3.org/2000/svg">
<path d="M45 11.5C44.4477 11.5 44 11.9477 44 12.5C44 13.0523 44.4477 13.5 45 13.5L45 11.5ZM53.6667 12.5C53.6667 15.4455 56.0545 17.8333 59 17.8333C61.9455 17.8333 64.3333 15.4455 64.3333 12.5C64.3333 9.55448 61.9455 7.16667 59 7.16667C56.0545 7.16667 53.6667 9.55448 53.6667 12.5ZM45 13.5L59 13.5L59 11.5L45 11.5L45 13.5Z" fill="#FF6B00"/>
<path d="M10.692 5.026V7.42H6.93V17.5H4.122V7.42H0.36V5.026H10.692ZM12.3166 17.5V3.964L14.9986 3.532V8.068C15.1786 8.008 15.4066 7.954 15.6826 7.906C15.9706 7.846 16.2466 7.816 16.5106 7.816C17.2786 7.816 17.9146 7.924 18.4186 8.14C18.9346 8.344 19.3426 8.638 19.6426 9.022C19.9546 9.406 20.1706 9.862 20.2906 10.39C20.4226 10.918 20.4886 11.506 20.4886 12.154V17.5H17.8066V12.478C17.8066 11.614 17.6926 11.002 17.4646 10.642C17.2486 10.282 16.8406 10.102 16.2406 10.102C16.0006 10.102 15.7726 10.126 15.5566 10.174C15.3526 10.21 15.1666 10.252 14.9986 10.3V17.5H12.3166ZM22.4663 12.838C22.4663 11.998 22.5923 11.266 22.8442 10.642C23.1083 10.006 23.4503 9.478 23.8703 9.058C24.2903 8.638 24.7703 8.32 25.3103 8.104C25.8623 7.888 26.4263 7.78 27.0023 7.78C28.3463 7.78 29.4083 8.194 30.1883 9.022C30.9683 9.838 31.3583 11.044 31.3583 12.64C31.3583 12.796 31.3523 12.97 31.3403 13.162C31.3283 13.342 31.3163 13.504 31.3043 13.648H25.2203C25.2803 14.2 25.5383 14.638 25.9943 14.962C26.4503 15.286 27.0623 15.448 27.8303 15.448C28.3223 15.448 28.8023 15.406 29.2703 15.322C29.7503 15.226 30.1403 15.112 30.4403 14.98L30.8003 17.158C30.6563 17.23 30.4643 17.302 30.2243 17.374C29.9843 17.446 29.7143 17.506 29.4143 17.554C29.1263 17.614 28.8143 17.662 28.4783 17.698C28.1423 17.734 27.8063 17.752 27.4703 17.752C26.6183 17.752 25.8743 17.626 25.2383 17.374C24.6143 17.122 24.0923 16.78 23.6723 16.348C23.2643 15.904 22.9583 15.382 22.7543 14.782C22.5623 14.182 22.4663 13.534 22.4663 12.838ZM28.7663 11.812C28.7543 11.584 28.7123 11.362 28.6403 11.146C28.5803 10.93 28.4783 10.738 28.3343 10.57C28.2023 10.402 28.0283 10.264 27.8123 10.156C27.6083 10.048 27.3503 9.994 27.0383 9.994C26.7383 9.994 26.4803 10.048 26.2643 10.156C26.0483 10.252 25.8683 10.384 25.7243 10.552C25.5803 10.72 25.4663 10.918 25.3823 11.146C25.3103 11.362 25.2563 11.584 25.2203 11.812H28.7663ZM7.524 27.186C6.216 27.186 5.268 27.552 4.68 28.284C4.104 29.004 3.816 29.994 3.816 31.254C3.816 31.866 3.888 32.424 4.032 32.928C4.176 33.42 4.392 33.846 4.68 34.206C4.968 34.566 5.328 34.848 5.76 35.052C6.192 35.244 6.696 35.34 7.272 35.34C7.584 35.34 7.848 35.334 8.064 35.322C8.292 35.31 8.49 35.286 8.658 35.25V30.912H11.466V37.086C11.13 37.218 10.59 37.356 9.846 37.5C9.102 37.656 8.184 37.734 7.092 37.734C6.156 37.734 5.304 37.59 4.536 37.302C3.78 37.014 3.132 36.594 2.592 36.042C2.052 35.49 1.632 34.812 1.332 34.008C1.044 33.204 0.9 32.286 0.9 31.254C0.9 30.21 1.062 29.286 1.386 28.482C1.71 27.678 2.154 27 2.718 26.448C3.282 25.884 3.942 25.458 4.698 25.17C5.466 24.882 6.282 24.738 7.146 24.738C7.734 24.738 8.262 24.78 8.73 24.864C9.21 24.936 9.618 25.026 9.954 25.134C10.302 25.23 10.584 25.332 10.8 25.44C11.028 25.548 11.19 25.632 11.286 25.692L10.476 27.942C10.092 27.738 9.648 27.564 9.144 27.42C8.652 27.264 8.112 27.186 7.524 27.186ZM17.5167 35.628C17.7807 35.628 18.0327 35.622 18.2727 35.61C18.5127 35.598 18.7047 35.58 18.8487 35.556V33.522C18.7407 33.498 18.5787 33.474 18.3627 33.45C18.1467 33.426 17.9487 33.414 17.7687 33.414C17.5167 33.414 17.2767 33.432 17.0487 33.468C16.8327 33.492 16.6407 33.546 16.4727 33.63C16.3047 33.714 16.1727 33.828 16.0767 33.972C15.9807 34.116 15.9327 34.296 15.9327 34.512C15.9327 34.932 16.0707 35.226 16.3467 35.394C16.6347 35.55 17.0247 35.628 17.5167 35.628ZM17.3007 27.78C18.0927 27.78 18.7527 27.87 19.2807 28.05C19.8087 28.23 20.2287 28.488 20.5407 28.824C20.8647 29.16 21.0927 29.568 21.2247 30.048C21.3567 30.528 21.4227 31.062 21.4227 31.65V37.23C21.0387 37.314 20.5047 37.41 19.8207 37.518C19.1367 37.638 18.3087 37.698 17.3367 37.698C16.7247 37.698 16.1667 37.644 15.6627 37.536C15.1707 37.428 14.7447 37.254 14.3847 37.014C14.0247 36.762 13.7487 36.438 13.5567 36.042C13.3647 35.646 13.2687 35.16 13.2687 34.584C13.2687 34.032 13.3767 33.564 13.5927 33.18C13.8207 32.796 14.1207 32.49 14.4927 32.262C14.8647 32.034 15.2907 31.872 15.7707 31.776C16.2507 31.668 16.7487 31.614 17.2647 31.614C17.6127 31.614 17.9187 31.632 18.1827 31.668C18.4587 31.692 18.6807 31.728 18.8487 31.776V31.524C18.8487 31.068 18.7107 30.702 18.4347 30.426C18.1587 30.15 17.6787 30.012 16.9947 30.012C16.5387 30.012 16.0887 30.048 15.6447 30.12C15.2007 30.18 14.8167 30.27 14.4927 30.39L14.1507 28.23C14.3067 28.182 14.4987 28.134 14.7267 28.086C14.9667 28.026 15.2247 27.978 15.5007 27.942C15.7767 27.894 16.0647 27.858 16.3647 27.834C16.6767 27.798 16.9887 27.78 17.3007 27.78ZM26.1339 32.694C26.1339 33.522 26.3199 34.188 26.6919 34.692C27.0639 35.196 27.6159 35.448 28.3479 35.448C28.5879 35.448 28.8099 35.442 29.0139 35.43C29.2179 35.406 29.3859 35.382 29.5179 35.358V30.48C29.3499 30.372 29.1279 30.282 28.8519 30.21C28.5879 30.138 28.3179 30.102 28.0419 30.102C26.7699 30.102 26.1339 30.966 26.1339 32.694ZM32.1999 37.194C31.9599 37.266 31.6839 37.338 31.3719 37.41C31.0599 37.47 30.7299 37.524 30.3819 37.572C30.0459 37.62 29.6979 37.656 29.3379 37.68C28.9899 37.716 28.6539 37.734 28.3299 37.734C27.5499 37.734 26.8539 37.62 26.2419 37.392C25.6299 37.164 25.1139 36.84 24.6939 36.42C24.2739 35.988 23.9499 35.472 23.7219 34.872C23.5059 34.26 23.3979 33.576 23.3979 32.82C23.3979 32.052 23.4939 31.362 23.6859 30.75C23.8779 30.126 24.1539 29.598 24.5139 29.166C24.8739 28.734 25.3119 28.404 25.8279 28.176C26.3559 27.948 26.9559 27.834 27.6279 27.834C27.9999 27.834 28.3299 27.87 28.6179 27.942C28.9179 28.014 29.2179 28.116 29.5179 28.248V23.964L32.1999 23.532V37.194ZM37.3932 37.5H34.7112V28.032H37.3932V37.5ZM37.6452 25.296C37.6452 25.788 37.4832 26.178 37.1592 26.466C36.8472 26.742 36.4752 26.88 36.0432 26.88C35.6112 26.88 35.2332 26.742 34.9092 26.466C34.5972 26.178 34.4412 25.788 34.4412 25.296C34.4412 24.804 34.5972 24.42 34.9092 24.144C35.2332 23.856 35.6112 23.712 36.0432 23.712C36.4752 23.712 36.8472 23.856 37.1592 24.144C37.4832 24.42 37.6452 24.804 37.6452 25.296ZM42.6323 35.574C43.1243 35.574 43.4723 35.526 43.6763 35.43C43.8803 35.334 43.9823 35.148 43.9823 34.872C43.9823 34.656 43.8503 34.47 43.5863 34.314C43.3223 34.146 42.9203 33.96 42.3803 33.756C41.9603 33.6 41.5763 33.438 41.2283 33.27C40.8923 33.102 40.6043 32.904 40.3643 32.676C40.1243 32.436 39.9383 32.154 39.8063 31.83C39.6743 31.506 39.6083 31.116 39.6083 30.66C39.6083 29.772 39.9383 29.07 40.5983 28.554C41.2583 28.038 42.1643 27.78 43.3163 27.78C43.8923 27.78 44.4443 27.834 44.9723 27.942C45.5003 28.038 45.9203 28.146 46.2323 28.266L45.7643 30.354C45.4523 30.246 45.1103 30.15 44.7383 30.066C44.3783 29.982 43.9703 29.94 43.5143 29.94C42.6743 29.94 42.2543 30.174 42.2543 30.642C42.2543 30.75 42.2723 30.846 42.3083 30.93C42.3443 31.014 42.4163 31.098 42.5243 31.182C42.6323 31.254 42.7763 31.338 42.9563 31.434C43.1483 31.518 43.3883 31.614 43.6763 31.722C44.2643 31.938 44.7503 32.154 45.1343 32.37C45.5183 32.574 45.8183 32.802 46.0343 33.054C46.2623 33.294 46.4183 33.564 46.5023 33.864C46.5983 34.164 46.6463 34.512 46.6463 34.908C46.6463 35.844 46.2923 36.552 45.5843 37.032C44.8883 37.512 43.8983 37.752 42.6143 37.752C41.7743 37.752 41.0723 37.68 40.5083 37.536C39.9563 37.392 39.5723 37.272 39.3563 37.176L39.8063 34.998C40.2623 35.178 40.7303 35.322 41.2103 35.43C41.6903 35.526 42.1643 35.574 42.6323 35.574ZM57.5066 32.748C57.5066 33.492 57.3986 34.176 57.1826 34.8C56.9666 35.412 56.6546 35.94 56.2466 36.384C55.8386 36.816 55.3466 37.152 54.7706 37.392C54.2066 37.632 53.5706 37.752 52.8626 37.752C52.1666 37.752 51.5306 37.632 50.9546 37.392C50.3906 37.152 49.9046 36.816 49.4966 36.384C49.0886 35.94 48.7706 35.412 48.5426 34.8C48.3146 34.176 48.2006 33.492 48.2006 32.748C48.2006 32.004 48.3146 31.326 48.5426 30.714C48.7826 30.102 49.1066 29.58 49.5146 29.148C49.9346 28.716 50.4266 28.38 50.9906 28.14C51.5666 27.9 52.1906 27.78 52.8626 27.78C53.5466 27.78 54.1706 27.9 54.7346 28.14C55.3106 28.38 55.8026 28.716 56.2106 29.148C56.6186 29.58 56.9366 30.102 57.1646 30.714C57.3926 31.326 57.5066 32.004 57.5066 32.748ZM54.7706 32.748C54.7706 31.92 54.6026 31.272 54.2666 30.804C53.9426 30.324 53.4746 30.084 52.8626 30.084C52.2506 30.084 51.7766 30.324 51.4406 30.804C51.1046 31.272 50.9366 31.92 50.9366 32.748C50.9366 33.576 51.1046 34.236 51.4406 34.728C51.7766 35.208 52.2506 35.448 52.8626 35.448C53.4746 35.448 53.9426 35.208 54.2666 34.728C54.6026 34.236 54.7706 33.576 54.7706 32.748ZM59.5842 28.356C60.0402 28.224 60.6282 28.104 61.3482 27.996C62.0682 27.876 62.8242 27.816 63.6162 27.816C64.4202 27.816 65.0862 27.924 65.6142 28.14C66.1542 28.344 66.5802 28.638 66.8922 29.022C67.2042 29.406 67.4262 29.862 67.5582 30.39C67.6902 30.918 67.7562 31.506 67.7562 32.154V37.5H65.0742V32.478C65.0742 31.614 64.9602 31.002 64.7322 30.642C64.5042 30.282 64.0782 30.102 63.4542 30.102C63.2622 30.102 63.0582 30.114 62.8422 30.138C62.6262 30.15 62.4342 30.168 62.2662 30.192V37.5H59.5842V28.356ZM74.688 37.5V25.026H83.112V27.384H77.496V29.832H82.482V32.136H77.496V35.142H83.526V37.5H74.688ZM87.9981 37.5C87.3861 36.3 86.7621 34.896 86.1261 33.288C85.5021 31.68 84.9081 29.928 84.3441 28.032H87.1881C87.3081 28.5 87.4461 29.01 87.6021 29.562C87.7701 30.102 87.9381 30.654 88.1061 31.218C88.2861 31.77 88.4601 32.31 88.6281 32.838C88.8081 33.366 88.9821 33.846 89.1501 34.278C89.3061 33.846 89.4741 33.366 89.6541 32.838C89.8341 32.31 90.0081 31.77 90.1761 31.218C90.3561 30.654 90.5241 30.102 90.6801 29.562C90.8481 29.01 90.9921 28.5 91.1121 28.032H93.8841C93.3201 29.928 92.7201 31.68 92.0841 33.288C91.4601 34.896 90.8421 36.3 90.2301 37.5H87.9981ZM94.6245 32.838C94.6245 31.998 94.7505 31.266 95.0025 30.642C95.2665 30.006 95.6085 29.478 96.0285 29.058C96.4485 28.638 96.9285 28.32 97.4685 28.104C98.0205 27.888 98.5845 27.78 99.1605 27.78C100.504 27.78 101.566 28.194 102.346 29.022C103.126 29.838 103.516 31.044 103.516 32.64C103.516 32.796 103.51 32.97 103.498 33.162C103.486 33.342 103.474 33.504 103.462 33.648H97.3785C97.4385 34.2 97.6965 34.638 98.1525 34.962C98.6085 35.286 99.2205 35.448 99.9885 35.448C100.48 35.448 100.96 35.406 101.428 35.322C101.908 35.226 102.298 35.112 102.598 34.98L102.958 37.158C102.814 37.23 102.622 37.302 102.382 37.374C102.142 37.446 101.872 37.506 101.572 37.554C101.284 37.614 100.972 37.662 100.636 37.698C100.3 37.734 99.9645 37.752 99.6285 37.752C98.7765 37.752 98.0325 37.626 97.3965 37.374C96.7725 37.122 96.2505 36.78 95.8305 36.348C95.4225 35.904 95.1165 35.382 94.9125 34.782C94.7205 34.182 94.6245 33.534 94.6245 32.838ZM100.924 31.812C100.912 31.584 100.87 31.362 100.798 31.146C100.738 30.93 100.636 30.738 100.492 30.57C100.36 30.402 100.186 30.264 99.9705 30.156C99.7665 30.048 99.5085 29.994 99.1965 29.994C98.8965 29.994 98.6385 30.048 98.4225 30.156C98.2065 30.252 98.0265 30.384 97.8825 30.552C97.7385 30.72 97.6245 30.918 97.5405 31.146C97.4685 31.362 97.4145 31.584 97.3785 31.812H100.924ZM105.586 28.356C106.042 28.224 106.63 28.104 107.35 27.996C108.07 27.876 108.826 27.816 109.618 27.816C110.422 27.816 111.088 27.924 111.616 28.14C112.156 28.344 112.582 28.638 112.894 29.022C113.206 29.406 113.428 29.862 113.56 30.39C113.692 30.918 113.758 31.506 113.758 32.154V37.5H111.076V32.478C111.076 31.614 110.962 31.002 110.734 30.642C110.506 30.282 110.08 30.102 109.456 30.102C109.264 30.102 109.06 30.114 108.844 30.138C108.628 30.15 108.436 30.168 108.268 30.192V37.5H105.586V28.356ZM116.096 25.674L118.778 25.242V28.032H122V30.264H118.778V33.594C118.778 34.158 118.874 34.608 119.066 34.944C119.27 35.28 119.672 35.448 120.272 35.448C120.56 35.448 120.854 35.424 121.154 35.376C121.466 35.316 121.748 35.238 122 35.142L122.378 37.23C122.054 37.362 121.694 37.476 121.298 37.572C120.902 37.668 120.416 37.716 119.84 37.716C119.108 37.716 118.502 37.62 118.022 37.428C117.542 37.224 117.158 36.948 116.87 36.6C116.582 36.24 116.378 35.808 116.258 35.304C116.15 34.8 116.096 34.242 116.096 33.63V25.674Z" fill="white"/>
</svg>
